<svg width="35" height="35" viewBox="0 0 35 35" fill="none" xmlns="http://www.w3.org/2000/svg">
<path d="M23.9369 8.48964C25.1023 8.00976 26.2678 9.17519 25.7879 10.3406L21.2633 20.2125C20.989 20.6924 20.6463 21.0352 20.1664 21.3094L10.2945 25.834C9.12908 26.3139 7.96365 25.1484 8.44353 23.983L12.9681 14.1111C13.2424 13.6312 13.5851 13.2885 14.065 13.0143L23.9369 8.48964ZM18.6582 18.7043C19.5494 17.8816 19.5494 16.442 18.6582 15.6193C17.8355 14.7281 16.3959 14.7281 15.5732 15.6193C14.682 16.442 14.682 17.8816 15.5732 18.7043C16.3959 19.5955 17.8355 19.5955 18.6582 18.7043ZM17.15 0.12596C26.4734 0.12596 34.1516 7.80409 34.1516 17.1275C34.1516 26.5195 26.4734 34.1291 17.15 34.1291C7.75798 34.1291 0.148409 26.5195 0.148409 17.1275C0.148409 7.80409 7.75798 0.12596 17.15 0.12596ZM17.15 30.8385C24.691 30.8385 30.8609 24.7371 30.8609 17.1275C30.8609 9.58651 24.691 3.41659 17.15 3.41659C9.54041 3.41659 3.43904 9.58651 3.43904 17.1275C3.43904 24.7371 9.54041 30.8385 17.15 30.8385Z" fill="#00FFCC"/>
</svg>
