<svg width="40" height="32" viewBox="0 0 40 32" fill="none" xmlns="http://www.w3.org/2000/svg">
<path d="M38.4469 0.771274C38.9953 0.771274 39.5438 1.25116 39.5438 1.9367V25.6566C39.5438 26.5479 38.9268 27.3705 38.1041 27.7133L27.7523 31.2781C27.2725 31.4152 26.8611 31.4838 26.3812 31.4838C25.9014 31.4838 25.4215 31.4152 25.0102 31.2781L13.2187 27.0963L1.49588 31.4152C1.35877 31.4838 1.22166 31.4838 1.08455 31.4838C0.536112 31.4838 0.0562287 31.0725 0.0562287 30.3869V6.66698C0.0562287 5.77577 0.604667 4.95311 1.42732 4.61034L11.7791 1.04549C12.259 0.908384 12.7389 0.771274 13.1502 0.771274C13.6301 0.839829 14.1099 0.908384 14.5898 1.04549L26.3812 5.15878L38.0356 0.908384C38.1727 0.839829 38.3098 0.771274 38.4469 0.771274ZM15.4125 4.816V24.4227L24.1875 27.5076V7.90097L15.4125 4.816ZM3.34686 27.302L12.0533 24.0113H12.1219V4.40468L3.34686 7.48964V27.302ZM36.2531 24.834V5.02167L27.4781 8.3123V27.919L36.2531 24.834Z" fill="#00F0FF"/>
</svg>
