<svg width="37" height="36" viewBox="0 0 37 36" fill="none" xmlns="http://www.w3.org/2000/svg">
<path d="M29.4337 22.515C32.9986 22.515 36.015 25.5314 36.015 29.0963C36.015 32.7297 32.9986 35.6775 29.4337 35.6775H10.3755C11.2667 34.5807 12.5007 33.0039 13.5976 31.29H29.4337C30.5992 31.29 31.6275 30.3303 31.6275 29.0963C31.6275 27.9309 30.5992 26.9025 29.4337 26.9025H22.8525C19.2191 26.9025 16.2712 23.9547 16.2712 20.3213C16.2712 16.7564 19.2191 13.74 22.8525 13.74H25.9375C24.3607 11.5463 22.8525 8.9412 22.8525 7.15878C22.8525 3.52538 25.8003 0.577522 29.4337 0.577522C33.0671 0.577522 36.015 3.52538 36.015 7.15878C36.015 10.7922 29.4337 18.1275 29.4337 18.1275H22.8525C21.6185 18.1275 20.6587 19.1559 20.6587 20.3213C20.6587 21.5553 21.6185 22.515 22.8525 22.515H29.4337ZM29.4337 4.96503C28.1998 4.96503 27.24 5.99335 27.24 7.15878C27.24 8.39276 28.1998 9.35253 29.4337 9.35253C30.5992 9.35253 31.6275 8.39276 31.6275 7.15878C31.6275 5.99335 30.5992 4.96503 29.4337 4.96503ZM7.49623 18.1275C11.1296 18.1275 14.0775 21.0754 14.0775 24.7088C14.0775 28.3422 7.49623 35.6775 7.49623 35.6775C7.49623 35.6775 0.914976 28.3422 0.914976 24.7088C0.914976 21.0754 3.86283 18.1275 7.49623 18.1275ZM7.49623 26.9025C8.66166 26.9025 9.68998 25.9428 9.68998 24.7088C9.68998 23.5434 8.66166 22.515 7.49623 22.515C6.26225 22.515 5.30248 23.5434 5.30248 24.7088C5.30248 25.9428 6.26225 26.9025 7.49623 26.9025Z" fill="#76DDFF"/>
</svg>
