<svg width="22" height="22" viewBox="0 0 22 22" fill="none" xmlns="http://www.w3.org/2000/svg">
<path d="M11.245 0.460258C17.0002 0.460258 21.7398 5.19985 21.7398 10.9551C21.7398 16.7526 17.0002 21.4499 11.245 21.4499C5.44744 21.4499 0.750165 16.7526 0.750165 10.9551C0.750165 5.19985 5.44744 0.460258 11.245 0.460258ZM18.1428 5.3268C17.9735 5.58071 16.4924 7.48501 13.1493 8.83918C13.4878 9.51626 13.6994 10.0241 13.9533 10.6165C16.9156 10.2357 19.8778 10.8281 20.174 10.9127C20.174 8.79686 19.4123 6.85024 18.1428 5.3268ZM17.1695 4.26886C14.9689 2.32224 11.9644 1.60284 9.12908 2.27992C9.38299 2.61846 10.9911 4.81899 12.4722 7.52733C15.646 6.34243 17.0002 4.52276 17.1695 4.26886ZM7.39406 2.87237C4.89731 4.05727 3.03532 6.38475 2.44288 9.1354C2.86605 9.17772 6.5477 9.17772 10.7372 8.07746C9.25604 5.41144 7.64796 3.21091 7.39406 2.87237ZM2.27361 10.9974C2.27361 13.2825 3.11996 15.3984 4.55876 16.9642C5.99757 14.5098 8.95981 11.8861 12.2183 10.9551C11.9644 10.4473 11.7528 9.93944 11.4566 9.43163C7.0132 10.7858 2.65447 10.7435 2.27361 10.7012C2.27361 10.8281 2.27361 10.9127 2.27361 10.9974ZM5.70134 18.0645C8.36736 20.138 11.8374 20.4766 14.715 19.2493C14.5881 18.4453 14.0803 15.6947 12.8107 12.4362C9.21372 13.6634 6.67465 16.1602 5.70134 18.0645ZM16.2385 18.403C18.2274 17.0488 19.6662 14.8906 20.0894 12.3939C19.7508 12.3092 17.2964 11.5898 14.5034 12.013C15.646 15.2715 16.1538 17.8952 16.2385 18.403Z" fill="white" fill-opacity="0.5"/>
</svg>
