<svg width="20" height="20" viewBox="0 0 20 20" fill="none" xmlns="http://www.w3.org/2000/svg">
<path d="M10.035 5.08852C12.701 5.08852 14.9015 7.28905 14.9015 9.95507C14.9015 12.6634 12.701 14.8216 10.035 14.8216C7.32665 14.8216 5.16844 12.6634 5.16844 9.95507C5.16844 7.28905 7.32665 5.08852 10.035 5.08852ZM10.035 13.1289C11.77 13.1289 13.1665 11.7324 13.1665 9.95507C13.1665 8.22004 11.77 6.82355 10.035 6.82355C8.25764 6.82355 6.86115 8.22004 6.86115 9.95507C6.86115 11.7324 8.29996 13.1289 10.035 13.1289ZM16.2134 4.91925C16.2134 5.55402 15.7056 6.06183 15.0708 6.06183C14.436 6.06183 13.9282 5.55402 13.9282 4.91925C13.9282 4.28448 14.436 3.77667 15.0708 3.77667C15.7056 3.77667 16.2134 4.28448 16.2134 4.91925ZM19.4295 6.06183C19.5142 7.62759 19.5142 12.3249 19.4295 13.8906C19.3449 15.4141 19.0064 16.7259 17.9061 17.8685C16.8058 18.9688 15.4517 19.3073 13.9282 19.3919C12.3625 19.4766 7.66519 19.4766 6.09943 19.3919C4.57599 19.3073 3.26414 18.9688 2.12156 17.8685C1.0213 16.7259 0.682759 15.4141 0.598124 13.8906C0.513488 12.3249 0.513488 7.62759 0.598124 6.06183C0.682759 4.53839 1.0213 3.18422 2.12156 2.08396C3.26414 0.983697 4.57599 0.645155 6.09943 0.56052C7.66519 0.475884 12.3625 0.475884 13.9282 0.56052C15.4517 0.645155 16.8058 0.983697 17.9061 2.08396C19.0064 3.18422 19.3449 4.53839 19.4295 6.06183ZM17.3983 15.541C17.9061 14.3138 17.7791 11.3516 17.7791 9.95507C17.7791 8.6009 17.9061 5.63865 17.3983 4.36912C17.0597 3.56508 16.425 2.888 15.6209 2.59177C14.3514 2.08396 11.3892 2.21091 10.035 2.21091C8.6385 2.21091 5.67626 2.08396 4.44904 2.59177C3.60269 2.93031 2.96792 3.56508 2.62938 4.36912C2.12156 5.63865 2.24852 8.6009 2.24852 9.95507C2.24852 11.3516 2.12156 14.3138 2.62938 15.541C2.96792 16.3874 3.60269 17.0221 4.44904 17.3607C5.67626 17.8685 8.6385 17.7415 10.035 17.7415C11.3892 17.7415 14.3514 17.8685 15.6209 17.3607C16.425 17.0221 17.1021 16.3874 17.3983 15.541Z" fill="white" fill-opacity="0.5"/>
</svg>
