<svg width="23" height="18" viewBox="0 0 23 18" fill="none" xmlns="http://www.w3.org/2000/svg">
<path d="M22.2151 6.20441C22.3844 6.07746 22.6383 6.20441 22.6383 6.416V15.0488C22.6383 16.1914 21.7073 17.0801 20.6071 17.0801H3.00287C1.86029 17.0801 0.971621 16.1914 0.971621 15.0488V6.416C0.971621 6.20441 1.18321 6.07746 1.35248 6.20441C2.32579 6.96613 3.553 7.89712 7.86942 11.0286C8.75809 11.6634 10.2815 13.0599 11.805 13.0599C13.2861 13.0599 14.8519 11.6634 15.6982 11.0286C20.0146 7.89712 21.2418 6.96613 22.2151 6.20441ZM11.805 11.6634C10.7893 11.7057 9.39286 10.4362 8.67346 9.92837C3.04519 5.86587 2.62201 5.48501 1.35248 4.46938C1.09857 4.30011 0.971621 4.00389 0.971621 3.66534V2.86131C0.971621 1.76104 1.86029 0.830053 3.00287 0.830053H20.6071C21.7073 0.830053 22.6383 1.76104 22.6383 2.86131V3.66534C22.6383 4.00389 22.469 4.30011 22.2151 4.46938C20.9456 5.48501 20.5224 5.86587 14.8942 9.92837C14.1748 10.4362 12.7783 11.7057 11.805 11.6634Z" fill="white" fill-opacity="0.5"/>
</svg>
